<?xml version="1.0" encoding="utf-8"?>
<!-- Generator: Adobe Illustrator 26.1.0, SVG Export Plug-In . SVG Version: 6.00 Build 0)  -->
<svg version="1.1" id="Layer_1" xmlns="http://www.w3.org/2000/svg" xmlns:xlink="http://www.w3.org/1999/xlink" x="0px" y="0px"
	 viewBox="0 0 342 133.7" style="enable-background:new 0 0 342 133.7;" xml:space="preserve">
<style type="text/css">
	.st0{fill:#55AE8D;}
</style>
<path class="st0" d="M96.4,133.7H38.9c-25.4,0-38.9-16-38.9-36.1C0,80.8,11.4,67,25.6,64.8C13,62.2,2.6,51,2.6,34.1
	C2.6,16.3,15.6,0,41.1,0h55.3c9.6,0,15,5.4,15,15v103.4C111.4,128.3,106,133.7,96.4,133.7z M83,109.4V78H46.3
	c-11.2,0-17.2,7.2-17.2,15.6c0,9.6,6.4,15.8,17.2,15.8H83z M83,53.7V24.3H47.3c-9.6,0-15.6,6.4-15.6,14.6c0,8.6,6,14.8,15.6,14.8H83
	z"/>
<path class="st0" d="M174.5,133.4c-6.9,0-12.4-5.5-12.5-12.4l-0.9-68.9l-51.7,75c-3.9,5.7-11.7,7.1-17.4,3.2c-3.3-2.3-5.3-6-5.4-10
	L84.3,13.9C84,7,89.2,1.1,96.1,0.7s12.8,4.9,13.2,11.8c0,0.3,0,0.6,0,0.9l1.4,67.7l52.1-75.5c3.9-5.7,11.7-7.1,17.4-3.2
	c3.3,2.3,5.4,6.1,5.4,10.1l0.9,68.2l50.4-75c3.9-5.7,11.6-7.2,17.4-3.4c5.7,3.9,7.2,11.6,3.4,17.4l-72.8,108.2
	C182.5,131.3,178.6,133.4,174.5,133.4z"/>
<path class="st0" d="M271.1,0h-24.3v25h24.3c27.5,0,41.9,18.2,41.9,41.9c0,22.7-15.4,41.7-41.9,41.7h-27.3
	c-6.9,0-12.5,5.6-12.5,12.5l0,0c0,6.9,5.6,12.5,12.5,12.5h27.3c41.9,0,70.9-26.4,70.9-66.7S313,0,271.1,0z"/>
</svg>
