<?xml version="1.0" encoding="utf-8"?>
<!-- Generator: Adobe Illustrator 26.3.0, SVG Export Plug-In . SVG Version: 6.00 Build 0)  -->
<svg version="1.1" id="Layer_1" xmlns="http://www.w3.org/2000/svg" xmlns:xlink="http://www.w3.org/1999/xlink" x="0px" y="0px"
	 viewBox="0 0 600 600" style="enable-background:new 0 0 600 600;" xml:space="preserve">
<style type="text/css">
	.st0{fill:#BFA97B;}
</style>
<path class="st0" d="M300,563.54L300,563.54c-18.05,0-32.82-14.77-32.82-32.82V69.28c0-18.05,14.77-32.82,32.82-32.82h0
	c18.05,0,32.82,14.77,32.82,32.82v461.44C332.82,548.77,318.05,563.54,300,563.54z"/>
<path class="st0" d="M563.54,300L563.54,300c0,18.05-14.77,32.82-32.82,32.82H69.28c-18.05,0-32.82-14.77-32.82-32.82v0
	c0-18.05,14.77-32.82,32.82-32.82h461.44C548.77,267.18,563.54,281.95,563.54,300z"/>
</svg>
