<?xml version="1.0" encoding="utf-8"?>
<!-- Generator: Adobe Illustrator 25.0.1, SVG Export Plug-In . SVG Version: 6.00 Build 0)  -->
<svg version="1.1" id="Layer_1" xmlns="http://www.w3.org/2000/svg" xmlns:xlink="http://www.w3.org/1999/xlink" x="0px" y="0px"
	 viewBox="0 0 80 80" style="enable-background:new 0 0 80 80;" xml:space="preserve">
<style type="text/css">
	.st0{fill:#1E2224;}
</style>
<path class="st0" d="M62.4,40.2c-0.1,0.1-0.2,0.1-0.3,0.2C49,53.6,35.9,66.7,22.9,79.9c-0.1,0.1-0.1,0.1-0.2,0.2h-0.1
	c0-0.1-0.1-0.1-0.1-0.2c-1.5-1.5-3-3-4.5-4.5c-0.1-0.1-0.1-0.1-0.2-0.1v-0.2c0.1-0.1,0.2-0.2,0.3-0.2c11.4-11.5,22.9-23,34.3-34.5
	c0.1-0.1,0.1-0.2,0.2-0.3c-0.1-0.1-0.2-0.2-0.3-0.3c-11.4-11.5-22.8-23-34.2-34.5C18,5.2,17.9,5.1,17.8,5V4.8
	c0.1-0.1,0.2-0.2,0.3-0.3c1.5-1.5,3-3,4.7-4.6C22.9,0,22.9,0.2,23,0.3c13,13.1,26,26.2,39,39.2c0.1,0.1,0.3,0.2,0.4,0.3
	C62.4,39.8,62.4,40.2,62.4,40.2z"/>
</svg>
