<?xml version="1.0" encoding="utf-8"?>
<!-- Generator: Adobe Illustrator 25.0.1, SVG Export Plug-In . SVG Version: 6.00 Build 0)  -->
<svg version="1.1" id="Layer_1" xmlns="http://www.w3.org/2000/svg" xmlns:xlink="http://www.w3.org/1999/xlink" x="0px" y="0px"
	 viewBox="0 0 80 80" style="enable-background:new 0 0 80 80;" xml:space="preserve">
<style type="text/css">
	.st0{fill:#1E2224;}
</style>
<path class="st0" d="M17.8,39.8c0.1-0.1,0.2-0.1,0.3-0.2C31.2,26.4,44.3,13.3,57.3,0.1C57.4,0,57.4,0,57.5-0.1h0.1
	c0,0.1,0.1,0.1,0.1,0.2c1.5,1.5,3,3,4.5,4.5c0.1,0.1,0.1,0.1,0.2,0.1v0.2c-0.1,0.1-0.2,0.2-0.3,0.2c-11.4,11.5-22.9,23-34.3,34.5
	c-0.1,0.1-0.1,0.2-0.2,0.3c0.1,0.1,0.2,0.2,0.3,0.3c11.4,11.5,22.8,23,34.2,34.5c0.1,0.1,0.2,0.2,0.3,0.3v0.2
	c-0.1,0.1-0.2,0.2-0.3,0.3c-1.5,1.5-3,3-4.7,4.6c-0.1-0.1-0.1-0.3-0.2-0.4c-13-13.1-26-26.2-39-39.2c-0.1-0.1-0.3-0.2-0.4-0.3V39.8z
	"/>
</svg>
